<svg xmlns="http://www.w3.org/2000/svg" viewBox="0 0 512 512" fill="none">
  <rect x="28" y="28" width="456" height="456" rx="120" fill="#f5f7f5"/>
  <circle cx="256" cy="182" r="92" stroke="#4f7f73" stroke-width="22"/>
  <path
    d="M256 130c18 0 33 15 33 33 0 14-8 25-18 37-7 8-14 16-15 26-1-10-8-18-15-26-10-12-18-23-18-37 0-18 15-33 33-33Z"
    stroke="#4f7f73"
    stroke-width="18"
    stroke-linecap="round"
    stroke-linejoin="round"
  />
  <path
    d="M208 255l-36 150 84-62 84 62-36-150"
    stroke="#4f7f73"
    stroke-width="22"
    stroke-linecap="round"
    stroke-linejoin="round"
  />
  <path
    d="M256 118v22M220 131l11 20M292 131l-11 20"
    stroke="#4f7f73"
    stroke-width="14"
    stroke-linecap="round"
  />
</svg>
